<svg width="135" height="41" viewBox="0 0 135 41" fill="none" xmlns="http://www.w3.org/2000/svg">
<g id="Baixar_na_App_Store 1" clip-path="url(#clip0_7924_6405)">
<g id="Group">
<path id="Vector" d="M134.032 35.6244C134.032 37.7404 132.318 39.4544 130.198 39.4544H4.72914C2.61014 39.4544 0.890137 37.7404 0.890137 35.6244V5.08144C0.890137 2.96644 2.61014 1.24644 4.72914 1.24644H130.197C132.318 1.24644 134.031 2.96644 134.031 5.08144L134.032 35.6244Z" fill="white"/>
<path id="Vector_2" d="M130.198 40.3454H4.729C2.122 40.3454 0 38.2284 0 35.6244V5.08245C0 2.47645 2.122 0.356445 4.729 0.356445H130.197C132.801 0.356445 134.926 2.47645 134.926 5.08245V35.6244C134.928 38.2284 132.803 40.3454 130.198 40.3454Z" fill="#A6A6A6"/>
<path id="Vector_3" d="M134.032 35.6244C134.032 37.7404 132.318 39.4544 130.198 39.4544H4.72914C2.61014 39.4544 0.890137 37.7404 0.890137 35.6244V5.08144C0.890137 2.96644 2.61014 1.24644 4.72914 1.24644H130.197C132.318 1.24644 134.031 2.96644 134.031 5.08144L134.032 35.6244Z" fill="black"/>
<path id="Vector_4" d="M30.1281 20.1404C30.0991 16.9174 32.7671 15.3494 32.8891 15.2764C31.3781 13.0734 29.0361 12.7724 28.2131 12.7484C26.2461 12.5414 24.3381 13.9254 23.3361 13.9254C22.3141 13.9254 20.7711 12.7684 19.1081 12.8024C16.9681 12.8354 14.9661 14.0744 13.8681 15.9984C11.6021 19.9214 13.2921 25.6864 15.4631 28.8574C16.5491 30.4114 17.8181 32.1444 19.4791 32.0834C21.1041 32.0174 21.7111 31.0484 23.6721 31.0484C25.6151 31.0484 26.1851 32.0834 27.8791 32.0444C29.6231 32.0174 30.7211 30.4844 31.7691 28.9174C33.0241 27.1384 33.5281 25.3844 33.5481 25.2944C33.5081 25.2804 30.1621 24.0024 30.1281 20.1404Z" fill="white"/>
<path id="Vector_5" d="M26.928 10.6624C27.802 9.56945 28.4 8.08245 28.234 6.57345C26.969 6.62945 25.387 7.44845 24.476 8.51745C23.67 9.45945 22.95 11.0034 23.136 12.4554C24.557 12.5614 26.016 11.7384 26.928 10.6624Z" fill="white"/>
<g id="Group_2">
<path id="Vector_6" d="M53.6652 31.8604H51.3942L50.1502 27.9514H45.8262L44.6412 31.8604H42.4302L46.7152 18.5524H49.3612L53.6652 31.8604ZM49.7752 26.3114L48.6502 22.8364C48.5312 22.4814 48.3072 21.6454 47.9792 20.3294H47.9392C47.8072 20.8954 47.5962 21.7314 47.3072 22.8364L46.2012 26.3114H49.7752Z" fill="white"/>
<path id="Vector_7" d="M64.6633 26.9444C64.6633 28.5764 64.2203 29.8664 63.3333 30.8134C62.5393 31.6564 61.5523 32.0774 60.3753 32.0774C59.1043 32.0774 58.1903 31.6244 57.6353 30.7164V35.7514H55.5033V25.4184C55.5033 24.3934 55.4763 23.3424 55.4243 22.2644H57.2993L57.4183 23.7854H57.4583C58.1693 22.6394 59.2483 22.0664 60.6963 22.0664C61.8283 22.0664 62.7733 22.5134 63.5293 23.4084C64.2843 24.3054 64.6633 25.4834 64.6633 26.9444ZM62.4913 27.0224C62.4913 26.0884 62.2813 25.3184 61.8593 24.7114C61.3983 24.0804 60.7793 23.7644 60.0033 23.7644C59.4773 23.7644 58.9993 23.9404 58.5723 24.2874C58.1443 24.6374 57.8643 25.0944 57.7333 25.6604C57.6673 25.9244 57.6343 26.1394 57.6343 26.3094V27.9104C57.6343 28.6074 57.8483 29.1964 58.2763 29.6784C58.7043 30.1584 59.2603 30.3994 59.9443 30.3994C60.7473 30.3994 61.3723 30.0884 61.8193 29.4714C62.2673 28.8524 62.4913 28.0364 62.4913 27.0224Z" fill="white"/>
<path id="Vector_8" d="M75.7 26.9444C75.7 28.5764 75.257 29.8664 74.37 30.8134C73.575 31.6564 72.589 32.0774 71.411 32.0774C70.14 32.0774 69.226 31.6244 68.671 30.7164V35.7514H66.539V25.4184C66.539 24.3934 66.512 23.3424 66.46 22.2644H68.335L68.454 23.7854H68.494C69.204 22.6394 70.283 22.0664 71.732 22.0664C72.863 22.0664 73.808 22.5134 74.566 23.4084C75.32 24.3054 75.7 25.4834 75.7 26.9444ZM73.527 27.0224C73.527 26.0884 73.316 25.3184 72.894 24.7114C72.433 24.0804 71.816 23.7644 71.04 23.7644C70.514 23.7644 70.036 23.9404 69.607 24.2874C69.179 24.6374 68.9 25.0944 68.769 25.6604C68.704 25.9244 68.669 26.1394 68.669 26.3094V27.9104C68.669 28.6074 68.884 29.1964 69.31 29.6784C69.738 30.1574 70.294 30.3994 70.98 30.3994C71.784 30.3994 72.409 30.0884 72.855 29.4714C73.303 28.8524 73.527 28.0364 73.527 27.0224Z" fill="white"/>
<path id="Vector_9" d="M88.0401 28.1274C88.0401 29.2604 87.6441 30.1814 86.8571 30.8924C85.9911 31.6684 84.7821 32.0574 83.2321 32.0574C81.8001 32.0574 80.6521 31.7814 79.7861 31.2284L80.2791 29.4514C81.2141 30.0054 82.2411 30.2814 83.3591 30.2814C84.1631 30.2814 84.7881 30.0994 85.2341 29.7384C85.6811 29.3764 85.9071 28.8924 85.9071 28.2884C85.9071 27.7474 85.7201 27.2944 85.3531 26.9254C84.9841 26.5574 84.3741 26.2144 83.5171 25.8994C81.1871 25.0304 80.0211 23.7594 80.0211 22.0874C80.0211 20.9954 80.4331 20.1014 81.2551 19.4024C82.0771 18.7044 83.1671 18.3554 84.5231 18.3554C85.7341 18.3554 86.7431 18.5664 87.5441 18.9874L87.0091 20.7254C86.2551 20.3174 85.4041 20.1134 84.4521 20.1134C83.7001 20.1134 83.1101 20.2984 82.6881 20.6664C82.3331 20.9954 82.1531 21.3964 82.1531 21.8724C82.1531 22.3974 82.3581 22.8334 82.7661 23.1754C83.1201 23.4904 83.7661 23.8334 84.7001 24.2014C85.8461 24.6634 86.6881 25.2014 87.2271 25.8194C87.7701 26.4374 88.0401 27.2084 88.0401 28.1274Z" fill="white"/>
<path id="Vector_10" d="M95.1072 23.8644H92.7572V28.5234C92.7572 29.7084 93.1712 30.2994 94.0012 30.2994C94.3822 30.2994 94.6982 30.2674 94.9482 30.2004L95.0072 31.8194C94.5872 31.9764 94.0342 32.0554 93.3492 32.0554C92.5072 32.0554 91.8492 31.7984 91.3742 31.2844C90.9012 30.7704 90.6632 29.9094 90.6632 28.6974V23.8604H89.2632V22.2604H90.6632V20.5034L92.7572 19.8714V22.2604H95.1072V23.8644Z" fill="white"/>
<path id="Vector_11" d="M105.689 26.9834C105.689 28.4584 105.267 29.6694 104.425 30.6164C103.544 31.5914 102.372 32.0774 100.911 32.0774C99.501 32.0774 98.38 31.6104 97.544 30.6774C96.708 29.7424 96.29 28.5644 96.29 27.1434C96.29 25.6564 96.722 24.4384 97.583 23.4914C98.446 22.5434 99.608 22.0694 101.069 22.0694C102.477 22.0694 103.608 22.5374 104.464 23.4714C105.282 24.3774 105.689 25.5474 105.689 26.9834ZM103.479 27.0324C103.479 26.1534 103.289 25.3994 102.908 24.7684C102.461 24.0064 101.821 23.6254 100.992 23.6254C100.138 23.6254 99.483 24.0064 99.037 24.7684C98.655 25.3994 98.465 26.1664 98.465 27.0724C98.465 27.9524 98.655 28.7084 99.037 29.3374C99.498 30.0994 100.141 30.4804 100.974 30.4804C101.789 30.4804 102.428 30.0914 102.89 29.3184C103.282 28.6724 103.479 27.9134 103.479 27.0324Z" fill="white"/>
<path id="Vector_12" d="M112.622 24.1394C112.411 24.1004 112.185 24.0804 111.95 24.0804C111.2 24.0804 110.62 24.3624 110.212 24.9304C109.858 25.4304 109.68 26.0624 109.68 26.8254V31.8604H107.548V25.2864C107.548 24.1814 107.527 23.1734 107.486 22.2654H109.343L109.421 24.1014H109.48C109.706 23.4704 110.06 22.9614 110.546 22.5804C111.021 22.2374 111.534 22.0664 112.087 22.0664C112.284 22.0664 112.462 22.0804 112.62 22.1054L112.622 24.1394Z" fill="white"/>
<path id="Vector_13" d="M122.157 26.6084C122.157 26.9904 122.132 27.3124 122.079 27.5754H115.683C115.707 28.5234 116.017 29.2494 116.611 29.7494C117.15 30.1954 117.847 30.4194 118.703 30.4194C119.65 30.4194 120.514 30.2694 121.291 29.9664L121.625 31.4454C120.717 31.8414 119.645 32.0384 118.408 32.0384C116.92 32.0384 115.752 31.6004 114.902 30.7264C114.054 29.8514 113.629 28.6754 113.629 27.2024C113.629 25.7564 114.024 24.5514 114.815 23.5904C115.643 22.5644 116.762 22.0514 118.17 22.0514C119.553 22.0514 120.6 22.5644 121.311 23.5904C121.874 24.4034 122.157 25.4114 122.157 26.6084ZM120.124 26.0554C120.139 25.4224 119.999 24.8774 119.71 24.4164C119.341 23.8224 118.773 23.5264 118.012 23.5264C117.315 23.5264 116.747 23.8154 116.315 24.3954C115.96 24.8564 115.749 25.4104 115.684 26.0534L120.124 26.0554Z" fill="white"/>
</g>
<g id="Group_3">
<g id="Group_4">
<path id="Vector_14" d="M45.0562 13.8474C44.5512 13.8474 44.0952 13.8184 43.6782 13.7694V7.33545C44.1152 7.24845 44.6572 7.19945 45.3082 7.19945C46.9102 7.19945 47.7442 7.82045 47.7442 8.83945C47.7442 9.46045 47.3472 10.0134 46.6572 10.2564V10.2864C47.4432 10.4714 47.9772 11.1014 47.9772 11.9164C47.9772 13.0614 47.1222 13.8474 45.0562 13.8474ZM45.4042 7.98645C45.1032 7.98645 44.8812 8.00545 44.7162 8.04445V9.96545H45.3662C46.1802 9.96545 46.6852 9.55745 46.6852 8.94645C46.6862 8.30645 46.2592 7.98645 45.4042 7.98645ZM45.3372 10.7324H44.7162V13.0134C44.8422 13.0424 45.0562 13.0524 45.3572 13.0524C46.3272 13.0524 46.8802 12.6154 46.8802 11.8874C46.8802 11.1494 46.2982 10.7324 45.3372 10.7324Z" fill="white"/>
<path id="Vector_15" d="M52.1561 13.7894L52.0791 13.2464H52.0501C51.7301 13.6834 51.2641 13.8964 50.6721 13.8964C49.8271 13.8964 49.2261 13.3044 49.2261 12.5084C49.2261 11.3444 50.2351 10.7424 51.9821 10.7424V10.6554C51.9821 10.0344 51.6521 9.72345 51.0031 9.72345C50.5361 9.72345 50.1291 9.84045 49.7701 10.0734L49.5571 9.38445C49.9941 9.11245 50.5361 8.97645 51.1771 8.97645C52.4091 8.97645 53.0311 9.62645 53.0311 10.9274V12.6644C53.0311 13.1404 53.0511 13.5094 53.0991 13.7904L52.1561 13.7894ZM52.0111 11.4404C50.8461 11.4404 50.2641 11.7224 50.2641 12.3914C50.2641 12.8864 50.5651 13.1284 50.9831 13.1284C51.5161 13.1284 52.0111 12.7214 52.0111 12.1684V11.4404Z" fill="white"/>
<path id="Vector_16" d="M55.3651 8.29645C55.0161 8.29645 54.7441 8.02445 54.7441 7.66545C54.7441 7.30645 55.0261 7.04445 55.3851 7.04445C55.7441 7.04445 56.0351 7.30645 56.0261 7.66545C56.0251 8.04445 55.7541 8.29645 55.3651 8.29645ZM55.9091 13.7894H54.8611V9.07345H55.9091V13.7894Z" fill="white"/>
<path id="Vector_17" d="M61.6142 13.7894H60.4302L59.8192 12.7994C59.6822 12.5764 59.5372 12.3144 59.3722 12.0134H59.3532C59.2552 12.1974 59.1102 12.4594 58.9062 12.7994L58.3242 13.7894H57.1802L58.7902 11.3824L57.2372 9.07245H58.4022L58.9942 10.0134C59.1102 10.1974 59.2562 10.4404 59.4312 10.7604H59.4602C59.6062 10.4794 59.7512 10.2264 59.8872 9.99345L60.4412 9.07145H61.5862L60.0242 11.3424L61.6142 13.7894Z" fill="white"/>
<path id="Vector_18" d="M65.5032 13.7894L65.4262 13.2464H65.3972C65.0772 13.6834 64.6112 13.8964 64.0192 13.8964C63.1742 13.8964 62.5732 13.3044 62.5732 12.5084C62.5732 11.3444 63.5822 10.7424 65.3292 10.7424V10.6554C65.3292 10.0344 64.9992 9.72345 64.3492 9.72345C63.8842 9.72345 63.4762 9.84045 63.1172 10.0734L62.9042 9.38445C63.3412 9.11245 63.8842 8.97645 64.5242 8.97645C65.7562 8.97645 66.3782 9.62645 66.3782 10.9274V12.6644C66.3782 13.1404 66.3982 13.5094 66.4462 13.7904L65.5032 13.7894ZM65.3572 11.4404C64.1932 11.4404 63.6102 11.7224 63.6102 12.3914C63.6102 12.8864 63.9112 13.1284 64.3292 13.1284C64.8622 13.1284 65.3572 12.7214 65.3572 12.1684V11.4404Z" fill="white"/>
<path id="Vector_19" d="M70.7022 9.99545C70.5962 9.97545 70.4882 9.96645 70.3722 9.96645C69.6912 9.96645 69.2572 10.5004 69.2572 11.3154V13.7904H68.2092V10.5594C68.2092 10.0164 68.2092 9.52045 68.1802 9.07445H69.0922V9.97645H69.1602C69.3632 9.37445 69.8692 8.97645 70.4412 8.97645C70.5392 8.97645 70.6252 8.98645 70.7032 8.99645L70.7022 9.99545Z" fill="white"/>
<path id="Vector_20" d="M78.967 13.7894H77.918V11.0814C77.918 10.2474 77.598 9.82945 76.967 9.82945C76.346 9.82945 75.92 10.3634 75.92 10.9844V13.7894H74.871V10.4214C74.871 10.0044 74.861 9.55745 74.832 9.07245H75.754L75.803 9.80045H75.832C76.113 9.29645 76.686 8.97545 77.326 8.97545C78.316 8.97545 78.967 9.73245 78.967 10.9644V13.7894Z" fill="white"/>
<path id="Vector_21" d="M83.3982 13.7894L83.3232 13.2464H83.2942C82.9752 13.6834 82.5072 13.8964 81.9152 13.8964C81.0702 13.8964 80.4712 13.3044 80.4712 12.5084C80.4712 11.3444 81.4792 10.7424 83.2272 10.7424V10.6554C83.2272 10.0344 82.8972 9.72345 82.2472 9.72345C81.7822 9.72345 81.3742 9.84045 81.0152 10.0734L80.8022 9.38445C81.2382 9.11245 81.7822 8.97645 82.4212 8.97645C83.6532 8.97645 84.2752 9.62645 84.2752 10.9274V12.6644C84.2752 13.1404 84.2962 13.5094 84.3432 13.7904L83.3982 13.7894ZM83.2542 11.4404C82.0902 11.4404 81.5062 11.7224 81.5062 12.3914C81.5062 12.8864 81.8072 13.1284 82.2252 13.1284C82.7582 13.1284 83.2542 12.7214 83.2542 12.1684V11.4404Z" fill="white"/>
</g>
</g>
</g>
</g>
<defs>
<clipPath id="clip0_7924_6405">
<rect width="135" height="40" fill="white" transform="translate(0 0.356445)"/>
</clipPath>
</defs>
</svg>
