<svg width="19" height="18" viewBox="0 0 19 18" fill="none" xmlns="http://www.w3.org/2000/svg">
<g clip-path="url(#clip0_7582_86)">
<path d="M18.9313 13.5C18.9313 14.0304 18.7206 14.5391 18.3455 14.9142C17.9705 15.2893 17.4618 15.5 16.9313 15.5H2.93134C2.4009 15.5 1.89219 15.2893 1.51712 14.9142C1.14205 14.5391 0.931335 14.0304 0.931335 13.5V4.5C0.931335 3.96957 1.14205 3.46086 1.51712 3.08579C1.89219 2.71071 2.4009 2.5 2.93134 2.5H16.9313C17.4618 2.5 17.9705 2.71071 18.3455 3.08579C18.7206 3.46086 18.9313 3.96957 18.9313 4.5V13.5Z" fill="#009B3A"/>
<path d="M17.2953 9L9.93132 14.562L2.56732 9L9.93132 3.4375L17.2953 9Z" fill="#FEDF01"/>
<path d="M9.91931 12.191C11.7026 12.191 13.1483 10.7454 13.1483 8.96203C13.1483 7.1787 11.7026 5.73303 9.91931 5.73303C8.13598 5.73303 6.69031 7.1787 6.69031 8.96203C6.69031 10.7454 8.13598 12.191 9.91931 12.191Z" fill="#002776"/>
<path d="M7.06983 7.44353C6.90207 7.75955 6.78849 8.10145 6.73383 8.45503C8.73133 8.31003 11.4423 9.40053 12.6058 10.7525C12.8068 10.4505 12.9558 10.1125 13.0473 9.75053C11.6113 8.34653 9.08883 7.43553 7.06983 7.44353Z" fill="#CBE9D4"/>
<path d="M6.93134 9.11646H7.43134V9.61646H6.93134V9.11646ZM7.43134 10.1165H7.93134V10.6165H7.43134V10.1165Z" fill="#88C9F9"/>
<path d="M8.43134 9.11646H8.93134V9.61646H8.43134V9.11646ZM9.43134 9.61646H9.93134V10.1165H9.43134V9.61646ZM11.4313 10.6165H11.9313V11.1165H11.4313V10.6165ZM9.93134 11.1165H10.4313V11.6165H9.93134V11.1165ZM11.4313 8.11646H11.9313V8.61646H11.4313V8.11646Z" fill="#55ACEE"/>
<path d="M10.4313 10.1165H10.9313V10.6165H10.4313V10.1165Z" fill="#3B88C3"/>
</g>
<defs>
<clipPath id="clip0_7582_86">
<rect width="18" height="18" fill="white" transform="translate(0.931335)"/>
</clipPath>
</defs>
</svg>
