<svg width="236" height="58" viewBox="0 0 236 58" fill="none" xmlns="http://www.w3.org/2000/svg">
<path d="M60.0682 7.36065C52.5698 7.36065 45.0797 7.36065 37.5812 7.36065C36.9717 7.36065 36.3621 7.36604 35.7609 7.31755C35.1096 7.26368 34.2412 7.25829 34.2412 6.66567C34.2412 6.04072 35.143 6.10537 35.786 6.06765C41.8983 5.69592 48.0022 5.28646 54.1145 4.99015C63.4083 4.5376 72.7688 4.47834 81.979 3.65405C89.6778 2.96445 97.1846 1.41285 104.925 0.680145C108.449 0.34612 111.973 0.0174819 115.547 0.00131939C116.156 0.00131939 116.774 -0.0148431 117.359 0.0659695C118.569 0.23837 120.381 0.232982 120.231 1.29432C120.089 2.2964 118.377 1.80613 117.375 1.84923C112.232 2.0809 107.188 2.65197 102.17 3.43855C107.288 3.53014 112.407 3.63789 117.509 3.70254C146.868 4.09583 175.476 7.02124 202.864 14.1058C212.241 16.5302 221.468 19.1539 229.2 23.5232C235.304 26.9712 237.567 31.5613 234.887 35.575C233.342 37.8863 230.687 39.6372 227.672 41.1565C221.067 44.4806 213.477 46.5817 205.661 48.3758C188.702 52.2655 171.117 54.3451 153.339 55.8482C130.276 57.7985 107.088 58.3534 83.8745 57.7931C64.5188 57.3298 45.2884 55.9883 26.7511 52.0231C19.0773 50.3799 11.7208 48.3057 5.88407 44.5129C-1.00481 40.0305 -1.87322 34.5945 3.42912 29.2986C8.01335 24.7192 14.7853 21.7453 21.7995 18.9815C32.7215 14.6769 44.5035 11.5467 56.511 8.75602C57.7135 8.47587 58.9326 8.21727 60.1433 7.94789C60.1183 7.75394 60.1016 7.55999 60.0765 7.36604L60.0682 7.36065ZM92.1328 7.60848C85.0936 7.36604 74.2635 7.27984 64.093 10.3992C62.7319 10.8194 61.2456 11.078 59.8344 11.4282C46.3656 14.7685 33.1306 18.4374 21.1147 23.6848C16.0629 25.8883 11.3451 28.3504 8.03005 31.7284C4.72339 35.0955 5.34131 38.6297 9.57483 41.539C11.4119 42.7997 13.5078 43.8287 15.804 44.7069C21.7911 47.0073 28.3126 48.4404 35.0094 49.5718C54.2982 52.8258 74.0463 53.607 93.8529 53.9141C106.061 54.1027 118.252 53.6932 130.435 53.1545C147.853 52.3787 165.146 50.9995 182.214 48.5751C194.38 46.8457 206.38 44.7338 217.502 40.9841C221.744 39.5564 225.844 37.9455 228.658 35.3218C230.996 33.1345 230.979 30.9795 228.633 28.7706C227.597 27.7955 226.378 26.9335 224.967 26.1738C221.577 24.3421 217.853 22.8282 213.886 21.5891C197.044 16.3362 179.317 12.8451 160.963 10.6578C139.478 8.09874 117.743 7.62464 92.1244 7.60848H92.1328Z" fill="#F43A01"/>
</svg>
