<svg width="17" height="16" viewBox="0 0 17 16" fill="none" xmlns="http://www.w3.org/2000/svg">
<g id="camera">
<path id="Vector" d="M5.5 4L6.5 2H10.5L11.5 4H5.5Z" stroke="white" stroke-linejoin="round"/>
<path id="Vector_2" d="M14.1667 4H2.83337C2.28109 4 1.83337 4.44772 1.83337 5V13C1.83337 13.5523 2.28109 14 2.83337 14H14.1667C14.719 14 15.1667 13.5523 15.1667 13V5C15.1667 4.44772 14.719 4 14.1667 4Z" stroke="white" stroke-linejoin="round"/>
<path id="Vector_3" d="M8.50004 11.6667C9.97281 11.6667 11.1667 10.4728 11.1667 9.00001C11.1667 7.52724 9.97281 6.33334 8.50004 6.33334C7.02727 6.33334 5.83337 7.52724 5.83337 9.00001C5.83337 10.4728 7.02727 11.6667 8.50004 11.6667Z" stroke="white" stroke-linejoin="round"/>
</g>
</svg>
