<svg width="12" height="12" viewBox="0 0 12 12" fill="none" xmlns="http://www.w3.org/2000/svg">
<g id="Fire">
<path id="Vector" d="M6 11C8.05867 11 9.74995 9.36855 9.74995 7.27453C9.74995 6.76045 9.72382 6.20937 9.43888 5.3529C9.15393 4.49645 9.09653 4.3859 8.79523 3.85698C8.6665 4.93635 7.97775 5.3862 7.80277 5.52065C7.80277 5.38077 7.38612 3.83397 6.7544 2.90847C6.13425 2 5.29085 1.40398 4.79633 1C4.79633 1.76744 4.58047 2.90848 4.27135 3.48985C3.96222 4.07123 3.90417 4.0924 3.51805 4.52505C3.13195 4.9577 2.95473 5.09132 2.63185 5.61627C2.30899 6.14125 2.25 6.84045 2.25 7.35453C2.25 9.44855 3.94132 11 6 11Z" fill="white"/>
</g>
</svg>
