<svg width="17" height="16" viewBox="0 0 17 16" fill="none" xmlns="http://www.w3.org/2000/svg">
<g id="hotel">
<path id="Vector" d="M13.1666 1.33334H3.83329C3.4651 1.33334 3.16663 1.63182 3.16663 2.00001V14C3.16663 14.3682 3.4651 14.6667 3.83329 14.6667H13.1666C13.5348 14.6667 13.8333 14.3682 13.8333 14V2.00001C13.8333 1.63182 13.5348 1.33334 13.1666 1.33334Z" stroke="white" stroke-linejoin="round"/>
<path id="Vector_2" d="M7.16663 10.6667H9.83329V14.6667H7.16663V10.6667Z" stroke="white" stroke-linecap="round" stroke-linejoin="round"/>
<path id="Vector_3" d="M5.5 6H6.16667" stroke="white" stroke-linecap="round"/>
<path id="Vector_4" d="M8.16663 4H8.83329" stroke="white" stroke-linecap="round"/>
<path id="Vector_5" d="M8.16663 6H8.83329" stroke="white" stroke-linecap="round"/>
<path id="Vector_6" d="M10.8334 4H11.5" stroke="white" stroke-linecap="round"/>
<path id="Vector_7" d="M10.8334 6H11.5" stroke="white" stroke-linecap="round"/>
<path id="Vector_8" d="M1.83337 14.6667H15.1667" stroke="white" stroke-linecap="round" stroke-linejoin="round"/>
<path id="Vector_9" d="M9.83335 10.6667H10.5C10.6841 10.6667 10.8366 10.516 10.8015 10.3353C10.6173 9.38842 9.65699 8.66666 8.50002 8.66666C7.34305 8.66666 6.38278 9.38842 6.19855 10.3353C6.16342 10.516 6.31592 10.6667 6.50002 10.6667H7.16668" stroke="white" stroke-linecap="round" stroke-linejoin="round"/>
</g>
</svg>
