<svg width="24" height="24" viewBox="0 0 24 24" fill="none" xmlns="http://www.w3.org/2000/svg">
<path d="M12 22C17.5229 22 22 17.5229 22 12C22 6.47715 17.5229 2 12 2C6.47715 2 2 6.47715 2 12C2 13.3558 2.26983 14.6487 2.75873 15.8277C3.01116 16.4364 3.32198 17.0149 3.68422 17.556C3.80579 17.7376 3.57771 18.8856 3 21C5.11445 20.4223 6.26245 20.1942 6.44405 20.3158C6.98515 20.678 7.56355 20.9888 8.1723 21.2412C9.3513 21.7301 10.6442 22 12 22Z" stroke="#F43A01" stroke-width="1.5" stroke-linejoin="round"/>
<path d="M9.59736 7C9.80954 7 10.005 7.11506 10.108 7.30057L10.8224 8.58748C10.916 8.75598 10.9204 8.95979 10.8342 9.13217L10.1459 10.5087C10.1459 10.5087 10.3454 11.5341 11.1801 12.3689C12.0148 13.2036 13.0369 13.3996 13.0369 13.3996L14.4131 12.7115C14.5856 12.6252 14.7896 12.6297 14.9582 12.7234L16.2487 13.4409C16.434 13.5439 16.549 13.7393 16.549 13.9513V15.4329C16.549 16.1875 15.8481 16.7324 15.1332 16.4912C13.6649 15.9957 11.3858 15.0524 9.94116 13.6078C8.49653 12.1632 7.55323 9.88402 7.05779 8.41574C6.81657 7.70083 7.36152 7 8.11602 7H9.59736Z" fill="#F43A01" stroke="#F43A01" stroke-width="0.584054" stroke-linejoin="round"/>
</svg>
